<svg data-v-423bf9ae="" xmlns="http://www.w3.org/2000/svg" viewBox="0 0 407 90" class="iconLeft"><!----><!----><!----><g data-v-423bf9ae="" id="31452a63-08e2-4f31-8e3b-b5c8c63d1869" fill="#000000" transform="matrix(5.338078498840332,0,0,5.338078498840332,100.69754028320312,0.6405705213546753)"><path d="M2.53 13.80L2.53 13.80Q2.00 13.80 1.62 13.42L1.62 13.42L1.62 13.42Q1.23 13.03 1.23 12.50L1.23 12.50L1.23 7.78L0.84 7.78L0.84 7.78Q0.49 7.78 0.24 7.53L0.24 7.53L0.24 7.53Q-0.01 7.28-0.01 6.92L-0.01 6.92L-0.01 6.92Q-0.01 6.57 0.24 6.31L0.24 6.31L0.24 6.31Q0.49 6.06 0.84 6.06L0.84 6.06L1.23 6.06L1.23 5.82L1.23 5.82Q1.23 4.24 1.97 3.48L1.97 3.48L1.97 3.48Q2.72 2.72 4.40 2.72L4.40 2.72L4.40 2.72Q4.97 2.72 5.30 2.93L5.30 2.93L5.30 2.93Q5.63 3.15 5.63 3.70L5.63 3.70L5.63 3.70Q5.63 4.10 5.42 4.42L5.42 4.42L5.42 4.42Q5.21 4.73 4.83 4.73L4.83 4.73L4.83 4.73Q4.28 4.73 4.06 4.95L4.06 4.95L4.06 4.95Q3.84 5.17 3.84 5.74L3.84 5.74L3.84 6.06L4.61 6.06L4.61 6.06Q4.96 6.06 5.21 6.31L5.21 6.31L5.21 6.31Q5.46 6.57 5.46 6.92L5.46 6.92L5.46 6.92Q5.46 7.28 5.21 7.53L5.21 7.53L5.21 7.53Q4.96 7.78 4.61 7.78L4.61 7.78L3.84 7.78L3.84 12.50L3.84 12.50Q3.84 13.03 3.45 13.42L3.45 13.42L3.45 13.42Q3.07 13.80 2.53 13.80L2.53 13.80ZM9.41 13.90L9.41 13.90Q8.15 13.90 7.25 13.38L7.25 13.38L7.25 13.38Q6.36 12.87 5.89 11.96L5.89 11.96L5.89 11.96Q5.43 11.05 5.43 9.90L5.43 9.90L5.43 9.90Q5.43 8.72 5.91 7.81L5.91 7.81L5.91 7.81Q6.38 6.90 7.29 6.38L7.29 6.38L7.29 6.38Q8.20 5.87 9.46 5.87L9.46 5.87L9.46 5.87Q10.72 5.87 11.63 6.38L11.63 6.38L11.63 6.38Q12.54 6.90 13.01 7.81L13.01 7.81L13.01 7.81Q13.47 8.72 13.47 9.87L13.47 9.87L13.47 9.87Q13.47 11.03 12.98 11.95L12.98 11.95L12.98 11.95Q12.50 12.87 11.59 13.38L11.59 13.38L11.59 13.38Q10.67 13.90 9.41 13.90L9.41 13.90ZM9.45 12.04L9.45 12.04Q10.15 12.04 10.50 11.47L10.50 11.47L10.50 11.47Q10.85 10.89 10.85 9.88L10.85 9.88L10.85 9.88Q10.85 8.88 10.50 8.30L10.50 8.30L10.50 8.30Q10.15 7.73 9.44 7.73L9.44 7.73L9.44 7.73Q8.74 7.73 8.39 8.29L8.39 8.29L8.39 8.29Q8.04 8.86 8.04 9.87L8.04 9.87L8.04 9.87Q8.04 10.89 8.39 11.47L8.39 11.47L8.39 11.47Q8.75 12.04 9.45 12.04L9.45 12.04ZM17.18 13.93L17.18 13.93Q15.92 13.93 15.04 13.57L15.04 13.57L15.04 13.57Q14.17 13.20 14.17 12.40L14.17 12.40L14.17 12.40Q14.17 11.94 14.48 11.60L14.48 11.60L14.48 11.60Q14.78 11.26 15.27 11.26L15.27 11.26L15.27 11.26Q15.55 11.26 15.75 11.38L15.75 11.38L15.75 11.38Q15.95 11.49 16.14 11.72L16.14 11.72L16.14 11.72Q16.35 11.98 16.56 12.10L16.56 12.10L16.56 12.10Q16.77 12.21 17.23 12.21L17.23 12.21L17.23 12.21Q18.31 12.21 18.31 11.54L18.31 11.54L18.31 11.54Q18.31 11.31 18.15 11.17L18.15 11.17L18.15 11.17Q17.99 11.03 17.50 10.93L17.50 10.93L16.55 10.74L16.55 10.74Q15.23 10.47 14.62 9.94L14.62 9.94L14.62 9.94Q14.00 9.41 14.00 8.48L14.00 8.48L14.00 8.48Q14.00 7.28 14.94 6.57L14.94 6.57L14.94 6.57Q15.89 5.87 17.46 5.87L17.46 5.87L17.46 5.87Q18.61 5.87 19.46 6.23L19.46 6.23L19.46 6.23Q20.31 6.59 20.31 7.35L20.31 7.35L20.31 7.35Q20.31 7.85 20.01 8.16L20.01 8.16L20.01 8.16Q19.71 8.46 19.26 8.46L19.26 8.46L19.26 8.46Q18.76 8.46 18.40 7.99L18.40 7.99L18.40 7.99Q18.26 7.80 18.05 7.69L18.05 7.69L18.05 7.69Q17.84 7.57 17.42 7.57L17.42 7.57L17.42 7.57Q16.97 7.57 16.71 7.73L16.71 7.73L16.71 7.73Q16.45 7.88 16.45 8.18L16.45 8.18L16.45 8.18Q16.45 8.41 16.65 8.54L16.65 8.54L16.65 8.54Q16.84 8.67 17.32 8.76L17.32 8.76L18.41 8.99L18.41 8.99Q19.67 9.25 20.24 9.79L20.24 9.79L20.24 9.79Q20.80 10.32 20.80 11.26L20.80 11.26L20.80 11.26Q20.80 12.49 19.90 13.21L19.90 13.21L19.90 13.21Q19.00 13.93 17.18 13.93L17.18 13.93ZM24.44 13.93L24.44 13.93Q23.18 13.93 22.31 13.57L22.31 13.57L22.31 13.57Q21.43 13.20 21.43 12.40L21.43 12.40L21.43 12.40Q21.43 11.94 21.74 11.60L21.74 11.60L21.74 11.60Q22.05 11.26 22.54 11.26L22.54 11.26L22.54 11.26Q22.82 11.26 23.02 11.38L23.02 11.38L23.02 11.38Q23.21 11.49 23.41 11.72L23.41 11.72L23.41 11.72Q23.62 11.98 23.83 12.10L23.83 12.10L23.83 12.10Q24.04 12.21 24.50 12.21L24.50 12.21L24.50 12.21Q25.58 12.21 25.58 11.54L25.58 11.54L25.58 11.54Q25.58 11.31 25.42 11.17L25.42 11.17L25.42 11.17Q25.26 11.03 24.77 10.93L24.77 10.93L23.81 10.74L23.81 10.74Q22.50 10.47 21.88 9.94L21.88 9.94L21.88 9.94Q21.27 9.41 21.27 8.48L21.27 8.48L21.27 8.48Q21.27 7.28 22.21 6.57L22.21 6.57L22.21 6.57Q23.16 5.87 24.72 5.87L24.72 5.87L24.72 5.87Q25.87 5.87 26.73 6.23L26.73 6.23L26.73 6.23Q27.58 6.59 27.58 7.35L27.58 7.35L27.58 7.35Q27.58 7.85 27.28 8.16L27.28 8.16L27.28 8.16Q26.98 8.46 26.53 8.46L26.53 8.46L26.53 8.46Q26.03 8.46 25.66 7.99L25.66 7.99L25.66 7.99Q25.52 7.80 25.31 7.69L25.31 7.69L25.31 7.69Q25.10 7.57 24.68 7.57L24.68 7.57L24.68 7.57Q24.23 7.57 23.98 7.73L23.98 7.73L23.98 7.73Q23.72 7.88 23.72 8.18L23.72 8.18L23.72 8.18Q23.72 8.41 23.91 8.54L23.91 8.54L23.91 8.54Q24.11 8.67 24.58 8.76L24.58 8.76L25.68 8.99L25.68 8.99Q26.94 9.25 27.50 9.79L27.50 9.79L27.50 9.79Q28.07 10.32 28.07 11.26L28.07 11.26L28.07 11.26Q28.07 12.49 27.17 13.21L27.17 13.21L27.17 13.21Q26.26 13.93 24.44 13.93L24.44 13.93ZM32.48 13.90L32.48 13.90Q30.52 13.90 29.53 12.84L29.53 12.84L29.53 12.84Q28.55 11.77 28.55 9.90L28.55 9.90L28.55 9.90Q28.55 8.76 29.01 7.85L29.01 7.85L29.01 7.85Q29.48 6.93 30.39 6.40L30.39 6.40L30.39 6.40Q31.30 5.87 32.59 5.87L32.59 5.87L32.59 5.87Q34.20 5.87 35.22 6.75L35.22 6.75L35.22 6.75Q35.39 6.90 35.48 7.15L35.48 7.15L35.48 7.15Q35.57 7.39 35.57 7.66L35.57 7.66L35.57 7.66Q35.57 8.13 35.24 8.47L35.24 8.47L35.24 8.47Q34.90 8.81 34.43 8.81L34.43 8.81L34.43 8.81Q34.10 8.81 33.84 8.64L33.84 8.64L33.84 8.64Q33.57 8.48 33.42 8.23L33.42 8.23L33.42 8.23Q33.14 7.73 32.49 7.73L32.49 7.73L32.49 7.73Q31.88 7.73 31.51 8.26L31.51 8.26L31.51 8.26Q31.15 8.79 31.15 9.88L31.15 9.88L31.15 9.88Q31.15 10.99 31.52 11.52L31.52 11.52L31.52 11.52Q31.89 12.04 32.49 12.04L32.49 12.04L32.49 12.04Q33.14 12.04 33.47 11.47L33.47 11.47L33.47 11.47Q33.64 11.17 33.90 11.00L33.90 11.00L33.90 11.00Q34.16 10.84 34.50 10.84L34.50 10.84L34.50 10.84Q34.99 10.84 35.34 11.19L35.34 11.19L35.34 11.19Q35.70 11.54 35.70 12.04L35.70 12.04L35.70 12.04Q35.70 12.54 35.36 12.88L35.36 12.88L35.36 12.88Q34.37 13.90 32.48 13.90L32.48 13.90ZM37.93 13.80L37.93 13.80Q37.39 13.80 37.01 13.42L37.01 13.42L37.01 13.42Q36.62 13.03 36.62 12.50L36.62 12.50L36.62 3.99L36.62 3.99Q36.62 3.46 37.01 3.07L37.01 3.07L37.01 3.07Q37.39 2.69 37.93 2.69L37.93 2.69L37.93 2.69Q38.46 2.69 38.84 3.07L38.84 3.07L38.84 3.07Q39.23 3.46 39.23 3.99L39.23 3.99L39.23 12.50L39.23 12.50Q39.23 13.03 38.84 13.42L38.84 13.42L38.84 13.42Q38.46 13.80 37.93 13.80L37.93 13.80ZM43.19 13.87L43.19 13.87Q41.76 13.87 41.13 13.07L41.13 13.07L41.13 13.07Q40.50 12.26 40.50 10.91L40.50 10.91L40.50 7.25L40.50 7.25Q40.50 6.72 40.89 6.33L40.89 6.33L40.89 6.33Q41.27 5.95 41.80 5.95L41.80 5.95L41.80 5.95Q42.34 5.95 42.72 6.33L42.72 6.33L42.72 6.33Q43.11 6.72 43.11 7.25L43.11 7.25L43.11 10.50L43.11 10.50Q43.11 11.28 43.42 11.60L43.42 11.60L43.42 11.60Q43.74 11.91 44.14 11.91L44.14 11.91L44.14 11.91Q44.69 11.91 45.01 11.48L45.01 11.48L45.01 11.48Q45.33 11.05 45.33 10.22L45.33 10.22L45.33 7.25L45.33 7.25Q45.33 6.72 45.72 6.33L45.72 6.33L45.72 6.33Q46.10 5.95 46.63 5.95L46.63 5.95L46.63 5.95Q47.17 5.95 47.55 6.33L47.55 6.33L47.55 6.33Q47.94 6.72 47.94 7.25L47.94 7.25L47.94 12.60L47.94 12.60Q47.94 13.09 47.58 13.45L47.58 13.45L47.58 13.45Q47.22 13.80 46.72 13.80L46.72 13.80L46.72 13.80Q46.23 13.80 45.87 13.45L45.87 13.45L45.87 13.45Q45.51 13.09 45.51 12.60L45.51 12.60L45.51 12.31L45.51 12.31Q45.19 13.01 44.62 13.44L44.62 13.44L44.62 13.44Q44.06 13.87 43.19 13.87L43.19 13.87ZM54.00 13.86L54.00 13.86Q53.09 13.86 52.58 13.57L52.58 13.57L52.58 13.57Q52.07 13.29 51.72 12.87L51.72 12.87L51.72 12.87Q51.63 13.27 51.29 13.54L51.29 13.54L51.29 13.54Q50.95 13.80 50.51 13.80L50.51 13.80L50.51 13.80Q50.02 13.80 49.67 13.45L49.67 13.45L49.67 13.45Q49.32 13.10 49.32 12.61L49.32 12.61L49.32 3.99L49.32 3.99Q49.32 3.46 49.71 3.07L49.71 3.07L49.71 3.07Q50.09 2.69 50.62 2.69L50.62 2.69L50.62 2.69Q51.16 2.69 51.54 3.07L51.54 3.07L51.54 3.07Q51.93 3.46 51.93 3.99L51.93 3.99L51.93 7.15L51.93 7.15Q52.61 5.91 54.14 5.91L54.14 5.91L54.14 5.91Q55.17 5.91 55.88 6.42L55.88 6.42L55.88 6.42Q56.59 6.93 56.94 7.79L56.94 7.79L56.94 7.79Q57.29 8.65 57.29 9.73L57.29 9.73L57.29 9.73Q57.29 10.99 56.85 11.93L56.85 11.93L56.85 11.93Q56.42 12.87 55.67 13.36L55.67 13.36L55.67 13.36Q54.92 13.86 54.00 13.86L54.00 13.86ZM53.26 12.11L53.26 12.11Q53.87 12.11 54.27 11.55L54.27 11.55L54.27 11.55Q54.67 10.99 54.67 9.87L54.67 9.87L54.67 9.87Q54.67 8.76 54.28 8.25L54.28 8.25L54.28 8.25Q53.89 7.73 53.28 7.73L53.28 7.73L53.28 7.73Q52.63 7.73 52.24 8.26L52.24 8.26L52.24 8.26Q51.86 8.79 51.86 9.87L51.86 9.87L51.86 9.87Q51.86 11.05 52.24 11.58L52.24 11.58L52.24 11.58Q52.63 12.11 53.26 12.11L53.26 12.11Z"></path></g><defs data-v-423bf9ae=""><linearGradient data-v-423bf9ae="" gradientTransform="rotate(25)" id="8a23a8c0-cc4e-4eef-9927-29f903b62c14" x1="0%" y1="0%" x2="100%" y2="0%"><stop data-v-423bf9ae="" offset="0%" style="stop-color: rgb(78, 26, 112); stop-opacity: 1;"></stop><stop data-v-423bf9ae="" offset="100%" style="stop-color: rgb(43, 76, 242); stop-opacity: 1;"></stop></linearGradient></defs><g data-v-423bf9ae="" id="87fb9984-7733-406e-8bd9-407e4556001c" transform="matrix(1.1047146320343018,0,0,1.1047146320343018,-14.78808879852295,-8.893320083618164)" stroke="none" fill="url(#8a23a8c0-cc4e-4eef-9927-29f903b62c14)"><path d="M81 61.839A2.839 2.839 0 0 0 78.161 59H46.839A2.839 2.839 0 0 0 44 61.839v25.322A2.839 2.839 0 0 0 46.839 90h31.322A2.839 2.839 0 0 0 81 87.161V61.839zM87 38.839A2.839 2.839 0 0 0 84.161 36H46.839A2.839 2.839 0 0 0 44 38.839v12.322A2.839 2.839 0 0 0 46.839 54h37.322A2.839 2.839 0 0 0 87 51.161V38.839zM37 87.161A2.839 2.839 0 0 1 34.161 90H22.839A2.839 2.839 0 0 1 20 87.161V61.839A2.839 2.839 0 0 1 22.839 59h11.322A2.839 2.839 0 0 1 37 61.839v25.322zM37 51.16A2.84 2.84 0 0 1 34.161 54H16.839A2.84 2.84 0 0 1 14 51.16V38.839A2.839 2.839 0 0 1 16.839 36h17.322A2.839 2.839 0 0 1 37 38.839V51.16zM78.221 13.109c-1.655-2.867-5.098-4.578-9.205-4.578-9.352 0-15.979 8.532-19.234 13.918-3.261-5.38-9.886-13.864-19.217-13.864-5.918 0-10.212 3.561-10.212 8.392 0 8.568 9.675 14.158 29.124 14.158 19.449 0 29.754-7.186 29.754-14.087-.002-1.372-.303-2.715-1.01-3.939zm-47.758 8.533c-3.269-1.68-4.433-3.566-4.433-4.772 0-1.542 1.906-2.661 4.534-2.661 6.33 0 11.339 6.29 14.061 10.669-7.292-.467-11.668-1.953-14.162-3.236zm42.648-3.337c-1.647 2.851-7.258 5.873-18.128 6.572 2.744-4.378 7.776-10.667 14.032-10.667 2.421 0 3.802.898 4.288 1.739.387.67.322 1.463-.192 2.356z"></path></g><!----></svg>